HIERARCHY
ROOT Hips
{
	OFFSET 0.00000 0.00000 0.00000
	CHANNELS 6 Xposition Yposition Zposition Zrotation Yrotation Xrotation 
	JOINT LHipJoint
	{
		OFFSET 0 0 0
		CHANNELS 3 Zrotation Yrotation Xrotation
		JOINT LeftUpLeg
		{
			OFFSET 1.62964 -1.40469 0.78906
			CHANNELS 3 Zrotation Yrotation Xrotation
			JOINT LeftLeg
			{
				OFFSET 2.29640 -6.30932 0.00000
				CHANNELS 3 Zrotation Yrotation Xrotation
				JOINT LeftFoot
				{
					OFFSET 2.29451 -6.30412 0.00000
					CHANNELS 3 Zrotation Yrotation Xrotation
					JOINT LeftToeBase
					{
						OFFSET 0.03611 -0.09921 1.56387
						CHANNELS 3 Zrotation Yrotation Xrotation
						End Site
						{
							OFFSET 0.00000 -0.00000 0.80291
						}
					}
				}
			}
		}
	}
	JOINT RHipJoint
	{
		OFFSET 0 0 0
		CHANNELS 3 Zrotation Yrotation Xrotation
		JOINT RightUpLeg
		{
			OFFSET -1.73712 -1.40469 0.78906
			CHANNELS 3 Zrotation Yrotation Xrotation
			JOINT RightLeg
			{
				OFFSET -2.28137 -6.26801 0.00000
				CHANNELS 3 Zrotation Yrotation Xrotation
				JOINT RightFoot
				{
					OFFSET -2.28681 -6.28298 0.00000
					CHANNELS 3 Zrotation Yrotation Xrotation
					JOINT RightToeBase
					{
						OFFSET -0.15927 -0.43759 1.61103
						CHANNELS 3 Zrotation Yrotation Xrotation
						End Site
						{
							OFFSET -0.00000 -0.00000 0.84630
						}
					}
				}
			}
		}
	}
	JOINT LowerBack
	{
		OFFSET 0 0 0
		CHANNELS 3 Zrotation Yrotation Xrotation
		JOINT Spine
		{
			OFFSET -0.04227 2.04338 -0.00225
			CHANNELS 3 Zrotation Yrotation Xrotation
			JOINT Spine1
			{
				OFFSET -0.02148 2.04482 -0.04273
				CHANNELS 3 Zrotation Yrotation Xrotation
				JOINT Neck
				{
					OFFSET 0 0 0
					CHANNELS 3 Zrotation Yrotation Xrotation
					JOINT Neck1
					{
						OFFSET 0.09180 1.44629 0.19359
						CHANNELS 3 Zrotation Yrotation Xrotation
						JOINT Head
						{
							OFFSET 0.00887 1.40645 0.14750
							CHANNELS 3 Zrotation Yrotation Xrotation
							End Site
							{
								OFFSET -0.00669 1.50671 0.03707
							}
						}
					}
				}
				JOINT LeftShoulder
				{
					OFFSET 0 0 0
					CHANNELS 3 Zrotation Yrotation Xrotation
					JOINT LeftArm
					{
						OFFSET 2.17674 1.86763 -0.06520
						CHANNELS 3 Zrotation Yrotation Xrotation
						JOINT LeftForeArm
						{
							OFFSET 4.65776 -0.00000 0.00000
							CHANNELS 3 Zrotation Yrotation Xrotation
							JOINT LeftHand
							{
								OFFSET 3.55539 -0.00000 0.00000
								CHANNELS 3 Zrotation Yrotation Xrotation
								JOINT LeftFingerBase
								{
									OFFSET 0 0 0
									CHANNELS 3 Zrotation Yrotation Xrotation
									JOINT LeftHandIndex1
									{
										OFFSET 0.70726 -0.00000 0.00000
										CHANNELS 3 Zrotation Yrotation Xrotation
										End Site
										{
											OFFSET 0.57022 -0.00000 0.00000
										}
									}
								}
								JOINT LThumb
								{
									OFFSET 0 0 0
									CHANNELS 3 Zrotation Yrotation Xrotation
									End Site
									{
										OFFSET 0.57892 -0.00000 0.57892
									}
								}
							}
						}
					}
				}
				JOINT RightShoulder
				{
					OFFSET 0 0 0
					CHANNELS 3 Zrotation Yrotation Xrotation
					JOINT RightArm
					{
						OFFSET -2.80694 1.55459 -0.32496
						CHANNELS 3 Zrotation Yrotation Xrotation
						JOINT RightForeArm
						{
							OFFSET -4.71925 -0.00000 -0.00000
							CHANNELS 3 Zrotation Yrotation Xrotation
							JOINT RightHand
							{
								OFFSET -3.56990 -0.00000 0.00000
								CHANNELS 3 Zrotation Yrotation Xrotation
								JOINT RightFingerBase
								{
									OFFSET 0 0 0
									CHANNELS 3 Zrotation Yrotation Xrotation
									JOINT RightHandIndex1
									{
										OFFSET -0.50776 -0.00000 0.00000
										CHANNELS 3 Zrotation Yrotation Xrotation
										End Site
										{
											OFFSET -0.40937 -0.00000 0.00000
										}
									}
								}
								JOINT RThumb
								{
									OFFSET 0 0 0
									CHANNELS 3 Zrotation Yrotation Xrotation
									End Site
									{
										OFFSET -0.41562 -0.00000 0.41562
									}
								}
							}
						}
					}
				}
			}
		}
	}
}
MOTION
Frames: 9
Frame Time: .0083333
-1.3591 18.0122 21.4617 177.4190 0.7851 -153.2560 0.0000 0.0000 0.0000 -20.7416 -17.3944 -24.1778 0.3181 3.6257 10.0261 0.0047 -6.4693 -4.6538 2.2999 -9.4647 -27.2599 0.0000 0.0000 0.0000 11.6372 22.3889 -31.6629 -1.5452 -7.8464 22.2487 -1.7673 -0.7164 -25.4148 -1.5393 7.8322 -22.2055 -7.7897 -2.1323 -21.7985 -0.2760 -0.5874 1.4404 3.9605 -0.7872 14.0850 1.0878 -2.8940 -4.2001 -0.7663 -1.8687 25.5122 -0.4864 -0.0823 8.5846 0.0000 0.0000 0.0000 -81.8465 2.0858 23.1197 18.7507 -29.1077 -4.9090 -0.0000 0.0000 -0.3615 24.0276 -13.5620 -5.9680 -7.1250 0.0000 -0.0000 -2.2978 15.1935 1.6166 0.0000 0.0000 0.0000 91.1801 -8.5934 9.6429 -22.0623 33.0473 -6.6198 0.0000 -0.0000 -3.0088 -15.4621 -55.0507 12.7745 7.1250 -0.0000 -0.0000 74.4660 -77.4989 -61.7953
-1.3656 18.0094 21.4554 177.4130 0.7390 -153.2890 0.0000 0.0000 0.0000 -20.7773 -17.4033 -24.0824 0.3158 3.6124 9.9886 0.0011 -6.5227 -4.5966 2.2310 -9.3316 -26.8382 0.0000 0.0000 0.0000 11.6472 22.3757 -31.8421 -1.6360 -8.0628 22.9050 -1.8281 -0.4327 -25.7459 -1.3106 7.2516 -20.4628 -7.7662 -2.1395 -21.6973 -0.3137 -0.6042 1.2974 3.9008 -0.7746 13.8581 1.1361 -2.9335 -4.1204 -0.7623 -1.8754 25.7479 -0.4911 -0.0595 8.6506 0.0000 0.0000 0.0000 -81.7404 2.2061 23.0441 18.7465 -29.1025 -4.9069 -0.0000 0.0000 -0.2851 24.1106 -13.0077 -5.7522 -7.1250 0.0000 -0.0000 -2.2072 15.7841 1.5247 0.0000 0.0000 0.0000 91.3334 -8.8955 9.8564 -21.9050 32.8694 -6.5342 0.0000 -0.0000 -2.8952 -15.7072 -55.1058 12.9888 7.1250 -0.0000 -0.0000 74.7020 -77.5994 -62.1306
-1.3711 18.0094 21.4462 177.3640 0.6433 -153.3610 0.0000 0.0000 0.0000 -20.8528 -17.4391 -23.9077 0.3114 3.5876 9.9193 0.0010 -6.5646 -4.6246 2.2080 -9.2866 -26.6959 0.0000 0.0000 0.0000 11.6572 22.3301 -31.8168 -1.6909 -8.1901 23.2930 -1.8570 -0.3233 -25.9106 -1.2652 7.1298 -20.1004 -7.8122 -2.1876 -21.9719 -0.3138 -0.6279 1.4360 3.9160 -0.8066 14.1863 1.1126 -3.0549 -4.4930 -0.8129 -2.0114 26.1248 -0.5190 -0.1203 8.8488 -0.0000 -0.0000 0.0000 -81.7253 1.8150 22.6507 18.6718 -29.0088 -4.8707 -0.0000 -0.0000 0.4317 23.8594 -12.8136 -5.6023 -7.1250 0.0000 -0.0000 -2.3692 16.0218 1.6246 -0.0000 -0.0000 0.0000 91.3868 -8.6334 9.9955 -21.6155 32.5398 -6.3778 0.0000 -0.0000 -2.8430 -15.7214 -54.6840 12.9359 7.1250 -0.0000 -0.0000 72.7771 -77.5469 -60.2368
-1.3762 18.0115 21.4373 177.2820 0.5130 -153.4580 0.0000 0.0000 0.0000 -20.9811 -17.4544 -23.7331 0.3086 3.5715 9.8742 -0.0020 -6.6609 -4.6165 2.2326 -9.3347 -26.8479 0.0000 0.0000 0.0000 11.6574 22.3790 -31.6199 -1.7144 -8.2440 23.4578 -1.8374 -0.6947 -25.9030 -1.4241 7.5465 -21.3448 -7.9361 -2.0720 -21.7704 -0.3146 -0.7703 1.3190 3.9096 -0.9927 13.9344 1.2332 -2.9990 -4.3984 -1.0889 -1.8626 26.1396 -0.6188 -0.0593 8.8325 -0.0000 0.0000 0.0000 -81.7421 1.8479 22.1979 18.5863 -28.9014 -4.8293 -0.0000 -0.0000 0.8163 23.7154 -13.3775 -5.8034 -7.1250 0.0000 -0.0000 -2.5008 15.4283 1.7471 -0.0000 0.0000 0.0000 91.4082 -8.7567 10.0361 -21.3058 32.1836 -6.2120 0.0000 -0.0000 -2.3760 -15.5041 -54.2017 12.6801 7.1250 -0.0000 -0.0000 70.6436 -77.3786 -58.0388
-1.3821 18.0128 21.4295 177.3080 0.3932 -153.5150 0.0000 0.0000 0.0000 -21.0100 -17.2818 -23.6636 0.3043 3.5466 9.8044 -0.0132 -6.8790 -4.4922 2.2250 -9.3197 -26.8007 0.0000 0.0000 0.0000 11.7747 22.4099 -31.4718 -1.7346 -8.2898 23.5978 -1.8348 -0.7201 -25.8941 -1.3752 7.4210 -20.9689 -7.8109 -2.0814 -21.8346 -0.3418 -0.8072 1.3167 3.7938 -1.0003 13.9703 1.3424 -2.9783 -4.3866 -1.2235 -1.7999 26.1975 -0.6772 -0.0270 8.8479 0.0000 0.0000 0.0000 -81.6828 1.6879 21.8805 18.4857 -28.7746 -4.7807 -0.0000 -0.0000 0.9601 24.1782 -13.9752 -6.1881 -7.1250 0.0000 -0.0000 -2.2210 14.7288 1.5846 0.0000 0.0000 0.0000 91.5563 -8.7202 9.9061 -21.0388 31.8736 -6.0704 0.0000 -0.0000 -1.5234 -15.6673 -54.0078 12.7855 7.1250 -0.0000 -0.0000 69.7478 -77.4029 -57.2246
-1.3887 18.0139 21.4215 177.3910 0.2860 -153.5420 0.0000 0.0000 0.0000 -20.9538 -17.1331 -23.6289 0.2998 3.5204 9.7312 -0.0227 -7.0541 -4.3840 2.1504 -9.1726 -26.3367 0.0000 0.0000 0.0000 11.9536 22.2687 -31.3391 -1.7348 -8.2903 23.5992 -1.8195 -0.4640 -25.6962 -1.2571 7.1078 -20.0350 -7.6838 -2.0715 -22.1143 -0.3284 -0.7958 1.3943 3.7374 -0.9954 14.2209 1.3598 -3.0373 -4.3466 -1.2175 -1.8884 26.1698 -0.6853 -0.0668 8.8293 0.0000 -0.0000 0.0000 -81.6490 1.4288 21.6705 18.4009 -28.6674 -4.7400 -0.0000 -0.0000 1.2090 24.7459 -13.9157 -6.3253 -7.1250 0.0000 -0.0000 -1.8299 14.7254 1.3053 0.0000 -0.0000 0.0000 91.7175 -8.6416 9.8361 -20.8829 31.6914 -5.9883 0.0000 -0.0000 -1.1403 -16.6833 -53.7915 13.5941 7.1250 -0.0000 -0.0000 68.5506 -77.7547 -56.4808
-1.3938 18.0132 21.4137 177.3730 0.1178 -153.5570 0.0000 0.0000 0.0000 -20.9906 -17.1753 -23.5627 0.2979 3.5093 9.7001 -0.0273 -7.1633 -4.3524 2.1949 -9.2608 -26.6145 0.0000 0.0000 0.0000 12.0788 21.9601 -31.1204 -1.6859 -8.1787 23.2581 -1.7713 -0.3336 -25.3090 -1.2494 7.0868 -19.9729 -7.7580 -2.1275 -21.9901 -0.2402 -0.8882 1.2375 3.8521 -1.0376 13.9773 1.2824 -3.1845 -4.3109 -1.3087 -2.0251 26.3573 -0.7135 -0.1327 8.8859 -0.0000 0.0000 0.0000 -81.7882 1.5080 21.3639 18.3451 -28.5968 -4.7133 -0.0000 -0.0000 1.3757 24.2899 -13.0800 -5.8317 -7.1250 0.0000 -0.0000 -2.0881 15.6857 1.4468 -0.0000 0.0000 0.0000 91.7102 -8.9633 9.9436 -20.8097 31.6055 -5.9499 0.0000 -0.0000 -1.2262 -16.4843 -54.5703 13.5564 7.1250 -0.0000 -0.0000 72.1718 -77.8242 -59.9614
-1.3999 18.0064 21.3966 177.3170 -0.0641 -153.5550 0.0000 0.0000 0.0000 -21.1140 -17.3034 -23.3569 0.2891 3.4577 9.5557 -0.0304 -7.1734 -4.2804 2.2657 -9.3989 -27.0514 0.0000 0.0000 0.0000 12.1780 21.6936 -30.7980 -1.6123 -8.0069 22.7350 -1.7170 -0.0957 -24.8374 -1.0541 6.5283 -18.3253 -7.7175 -2.1851 -22.3005 -0.2452 -0.9426 1.2976 3.8009 -1.0692 14.2347 1.3099 -3.2752 -4.4547 -1.3948 -2.1574 26.3646 -0.7613 -0.2069 8.9114 -0.0000 -0.0000 0.0000 -81.8148 1.2864 21.0030 18.3034 -28.5439 -4.6933 -0.0000 -0.0000 1.4735 23.6237 -12.7914 -5.5311 -7.1250 0.0000 -0.0000 -2.5307 16.0711 1.7329 -0.0000 -0.0000 0.0000 91.7445 -8.8601 9.9945 -20.6216 31.3840 -5.8517 0.0000 -0.0000 -1.0043 -15.9731 -54.5317 13.1226 7.1250 -0.0000 -0.0000 72.0541 -77.6198 -59.6297
-1.4280 17.9642 21.3143 177.3990 -0.3488 -153.2570 0.0000 0.0000 0.0000 -21.4641 -17.4663 -22.7016 0.2463 3.1933 8.8174 -0.0392 -7.2606 -4.1262 2.1188 -9.1092 -26.1377 0.0000 0.0000 0.0000 12.6382 20.8030 -30.2488 -1.4623 -7.6424 21.6332 -1.6563 0.6870 -24.1428 -0.8121 5.7508 -16.0631 -7.1252 -2.1894 -23.8385 -0.3217 -0.9739 1.3680 3.3436 -1.0700 15.1971 1.4200 -3.1967 -4.4707 -1.4696 -2.0054 26.5177 -0.7915 -0.1183 8.9675 0.0000 0.0000 0.0000 -81.7240 1.4351 20.9606 18.3844 -28.6466 -4.7321 -0.0000 -0.0000 1.4323 23.5908 -13.0759 -5.6425 -7.1250 0.0000 -0.0000 -2.5691 15.7674 1.7761 0.0000 0.0000 0.0000 91.8547 -9.0089 9.8693 -20.4697 31.2041 -5.7727 0.0000 -0.0000 -0.6212 -15.5654 -54.5039 12.7777 7.1250 -0.0000 -0.0000 71.9846 -77.4575 -59.3887
